# xmcd CD database file
#
# Track frame offsets:
#	150
#	17165
#	31661
#	47773
#	61409
#	75463
#	89555
#	103533
#	122232
#	132166
#
# Disc length: 1975 seconds
#
# Revision: 0
# Processed by: cddbd v1.5.1PL0 Copyright (c) Steve Scherf et al.
# Submitted via: NeoAudio 9.9.9
#
DISCID=7a07b50a
DTITLE=Tom Lanza - Shoutin' Time
DYEAR=1900
DGENRE=Country
TTITLE0=Shoutin' Time
TTITLE1=Old, Old Story
TTITLE2=Miracles Still Happen
TTITLE3=Roy Rogers Was King
TTITLE4=Jesus Is Alive
TTITLE5=Get On Livin'
TTITLE6=Ain't Goin' Back To Egypt
TTITLE7=Father We Come
TTITLE8=Can't Cross The Bloodline
TTITLE9=You're Gonna Make It
EXTD=
EXTT0=
EXTT1=
EXTT2=
EXTT3=
EXTT4=
EXTT5=
EXTT6=
EXTT7=
EXTT8=
EXTT9=
PLAYORDER=
